<?xml version="1.0" encoding="utf-8"?>
<!-- Generator: Adobe Illustrator 27.0.0, SVG Export Plug-In . SVG Version: 6.00 Build 0)  -->
<svg version="1.1" id="Layer_1" xmlns="http://www.w3.org/2000/svg" xmlns:xlink="http://www.w3.org/1999/xlink" x="0px" y="0px"
	 viewBox="0 0 40 40" style="enable-background:new 0 0 40 40;" xml:space="preserve">
<style type="text/css">
	.st0{fill:#EC1A2E;}
</style>
<path class="st0" d="M12.32,38.55c0.19-2.84,0.34-5.12,0.51-7.78c-2.33,1.12-4.35,2.09-6.96,3.35c1.26-2.58,2.24-4.59,3.38-6.93
	c-2.63,0.16-4.94,0.29-7.76,0.46c2.02-1.76,3.75-3.26,5.83-5.07c-2.46-0.88-4.62-1.66-7.27-2.61c2.57-0.87,4.71-1.6,7.28-2.47
	c-1.99-1.78-3.7-3.3-5.81-5.19c2.76,0.2,5.01,0.36,7.72,0.56c-1.16-2.41-2.16-4.49-3.37-7.01c2.45,1.19,4.51,2.2,6.95,3.39
	c-0.15-2.66-0.29-4.95-0.45-7.78c1.81,2.09,3.3,3.8,5.1,5.87C18.3,4.89,19.05,2.72,19.98,0c0.9,2.6,1.64,4.76,2.51,7.29
	c1.75-1.95,3.32-3.7,5.19-5.78c-0.19,2.74-0.34,5-0.53,7.72c2.41-1.17,4.48-2.17,7.02-3.4c-1.19,2.44-2.21,4.51-3.41,6.97
	c2.64-0.15,4.92-0.28,7.69-0.44c-2.05,1.82-3.73,3.32-5.74,5.1c2.47,0.87,4.64,1.63,7.26,2.55c-2.56,0.88-4.7,1.62-7.26,2.5
	c1.97,1.76,3.73,3.33,5.75,5.14c-2.72-0.16-5.04-0.3-7.69-0.45c1.15,2.36,2.17,4.45,3.39,6.96c-2.44-1.18-4.51-2.18-7-3.38
	c0.18,2.67,0.33,4.93,0.51,7.74c-1.81-2.04-3.32-3.75-5.13-5.8c-0.85,2.43-1.59,4.57-2.54,7.31c-0.92-2.71-1.65-4.82-2.51-7.36
	C15.66,34.72,14.14,36.46,12.32,38.55z"/>
</svg>
